<?xml version="1.0" encoding="iso-8859-1"?>
<!-- Uploaded to: SVG Repo, www.svgrepo.com, Generator: SVG Repo Mixer Tools -->
<svg height="800px" width="800px" version="1.1" id="Layer_1" xmlns="http://www.w3.org/2000/svg" xmlns:xlink="http://www.w3.org/1999/xlink" 
	 viewBox="0 0 503.505 503.505" xml:space="preserve">
<g>
	<path style="fill:#F0C419;" d="M446.819,403.152c-16.471-31.128-77.225-66.734-77.225-66.734
		c-13.746-7.836-30.338-8.713-38.174,5.259c0,0-19.742,23.673-24.758,27.075c-22.945,15.542-44.18,14.935-65.631-6.508
		l-49.838-49.846l-49.838-49.838c-21.452-21.443-22.051-42.687-6.508-65.623c3.393-5.025,27.075-24.767,27.075-24.767
		c13.963-7.845,13.095-24.428,5.25-38.174c0,0-35.597-60.746-66.734-77.225c-13.243-7.003-29.505-4.556-40.101,6.04L38.321,84.818
		C-31.493,154.641,2.88,233.463,72.703,303.286l63.8,63.8l63.809,63.809c69.814,69.823,148.645,104.196,218.459,34.373
		l22.016-22.016C451.375,432.657,453.831,416.395,446.819,403.152"/>
	<path style="fill:#C03A2B;" d="M360.336,112.814c-23.101,0-40.561,16.584-47.868,34.712c-7.289-18.128-24.758-34.712-47.85-34.712
		c-47.859,0-63.479,60.433-28.906,96.23c12.869,13.329,73.225,74.292,76.861,77.329c4.209-4.183,64.208-63.826,76.67-77.329
		C423.911,171.494,408.195,112.814,360.336,112.814"/>
	<path style="fill:#96241B;" d="M442.04,17.356C446.943,6.526,458.407,0,471.441,0c17.547,0,30.191,13.989,31.779,30.659
		c0,0,0.85,4.139-1.024,11.594c-2.577,10.145-8.626,19.161-16.766,26.043l-42.765,35.84l-42.756-35.849
		c-8.149-6.873-14.188-15.889-16.766-26.034c-1.883-7.454-1.024-11.594-1.024-11.594C383.698,13.989,396.342,0,413.898,0
		C426.932,0,437.137,6.526,442.04,17.356"/>
</g>
</svg>